<svg width="1600" height="900" viewBox="0 0 1600 900" fill="none" xmlns="http://www.w3.org/2000/svg">
  <rect width="1600" height="900" fill="#06080F"/>
  <rect y="520" width="1600" height="380" fill="#0A1320"/>
  <rect y="640" width="1600" height="260" fill="#080D15"/>
  <rect x="0" y="670" width="1600" height="4" fill="#FFB300" fill-opacity="0.22"/>
  <rect x="0" y="676" width="1600" height="4" fill="#00E5FF" fill-opacity="0.18"/>
  <rect x="40" y="190" width="210" height="270" fill="#0F1726"/>
  <rect x="72" y="224" width="148" height="82" fill="#FF4B8A" fill-opacity="0.17"/>
  <rect x="86" y="240" width="112" height="12" fill="#FF4B8A"/>
  <rect x="86" y="262" width="96" height="12" fill="#FFB300"/>
  <rect x="86" y="284" width="108" height="12" fill="#00E5FF"/>
  <rect x="264" y="132" width="120" height="360" fill="#101B2B"/>
  <rect x="412" y="82" width="180" height="420" fill="#0D1826"/>
  <rect x="624" y="42" width="126" height="468" fill="#0E1724"/>
  <rect x="776" y="112" width="144" height="392" fill="#121E31"/>
  <rect x="948" y="96" width="220" height="426" fill="#11192A"/>
  <rect x="1198" y="62" width="136" height="448" fill="#0E1827"/>
  <rect x="1356" y="120" width="176" height="392" fill="#0F1726"/>
  <g fill="#00E5FF" fill-opacity="0.82">
    <rect x="293" y="160" width="14" height="20"/>
    <rect x="322" y="188" width="14" height="20"/>
    <rect x="460" y="126" width="18" height="26"/>
    <rect x="460" y="168" width="18" height="18"/>
    <rect x="520" y="214" width="22" height="24"/>
    <rect x="648" y="96" width="12" height="20"/>
    <rect x="680" y="124" width="12" height="20"/>
    <rect x="1002" y="142" width="16" height="20"/>
    <rect x="1040" y="178" width="16" height="20"/>
    <rect x="1228" y="104" width="16" height="20"/>
    <rect x="1424" y="160" width="18" height="22"/>
  </g>
  <g fill="#FFB300" fill-opacity="0.92">
    <rect x="292" y="222" width="14" height="14"/>
    <rect x="490" y="264" width="18" height="16"/>
    <rect x="648" y="150" width="12" height="14"/>
    <rect x="844" y="182" width="20" height="18"/>
    <rect x="1090" y="228" width="18" height="16"/>
    <rect x="1258" y="164" width="16" height="16"/>
    <rect x="1448" y="214" width="16" height="18"/>
  </g>
  <g fill="#FF4B8A" fill-opacity="0.88">
    <rect x="330" y="252" width="14" height="18"/>
    <rect x="710" y="206" width="14" height="18"/>
    <rect x="885" y="150" width="14" height="18"/>
    <rect x="1074" y="188" width="14" height="18"/>
    <rect x="1306" y="210" width="14" height="18"/>
  </g>
  <rect x="300" y="486" width="912" height="138" rx="10" fill="#111A29"/>
  <rect x="312" y="496" width="888" height="118" fill="#0B1220"/>
  <rect x="552" y="480" width="122" height="28" fill="#00E5FF"/>
  <rect x="882" y="478" width="164" height="30" fill="#FFB300"/>
  <rect x="720" y="560" width="180" height="12" fill="#00E5FF" fill-opacity="0.45"/>
  <rect x="0" y="608" width="1600" height="12" fill="#0C1422"/>
  <rect x="0" y="620" width="1600" height="20" fill="#111B2C"/>
  <rect x="0" y="640" width="1600" height="80" fill="#05070C"/>
  <g fill="#161E2E">
    <rect x="0" y="720" width="220" height="180"/>
    <rect x="244" y="730" width="190" height="170"/>
    <rect x="452" y="744" width="168" height="156"/>
    <rect x="650" y="734" width="200" height="166"/>
    <rect x="878" y="744" width="152" height="156"/>
    <rect x="1060" y="730" width="208" height="170"/>
    <rect x="1292" y="738" width="308" height="162"/>
  </g>
  <g fill="#FFB300">
    <rect x="1120" y="706" width="12" height="12"/>
    <rect x="1142" y="706" width="12" height="12"/>
    <rect x="1164" y="706" width="12" height="12"/>
    <rect x="1186" y="706" width="12" height="12"/>
    <rect x="1208" y="706" width="12" height="12"/>
    <rect x="1230" y="706" width="12" height="12"/>
  </g>
  <g fill="#00E5FF">
    <rect x="940" y="690" width="10" height="10"/>
    <rect x="960" y="690" width="10" height="10"/>
    <rect x="980" y="690" width="10" height="10"/>
    <rect x="1000" y="690" width="10" height="10"/>
  </g>
  <rect x="1108" y="720" width="170" height="62" rx="28" fill="#172131"/>
  <rect x="1128" y="736" width="32" height="20" fill="#FFD368"/>
  <rect x="1228" y="736" width="32" height="20" fill="#FFD368"/>
  <circle cx="1140" cy="788" r="18" fill="#0B1320"/>
  <circle cx="1246" cy="788" r="18" fill="#0B1320"/>
  <rect x="1126" y="750" width="12" height="12" fill="#00E5FF" fill-opacity="0.85"/>
  <rect x="1250" y="750" width="12" height="12" fill="#00E5FF" fill-opacity="0.85"/>
  <rect x="146" y="546" width="16" height="56" fill="#0C1320"/>
  <rect x="158" y="530" width="28" height="28" fill="#FF4B8A"/>
  <rect x="534" y="548" width="16" height="54" fill="#0D1423"/>
  <rect x="548" y="532" width="28" height="26" fill="#00E5FF"/>
  <rect x="1368" y="538" width="14" height="64" fill="#0D1423"/>
  <rect x="1380" y="526" width="26" height="24" fill="#FFB300"/>
  <circle cx="368" cy="478" r="74" fill="#0A0F18"/>
  <rect x="356" y="354" width="24" height="144" fill="#121826"/>
  <rect x="334" y="326" width="68" height="24" fill="#121826"/>
  <rect x="310" y="302" width="116" height="24" fill="#121826"/>
  <rect x="334" y="278" width="68" height="24" fill="#121826"/>
  <rect x="356" y="254" width="24" height="24" fill="#121826"/>
  <rect x="0" y="0" width="1600" height="900" fill="url(#paint0_radial)" fill-opacity="0.4"/>
  <defs>
    <radialGradient id="paint0_radial" cx="0" cy="0" r="1" gradientUnits="userSpaceOnUse" gradientTransform="translate(930 100) rotate(90) scale(420 980)">
      <stop stop-color="#00E5FF"/>
      <stop offset="0.55" stop-color="#00E5FF" stop-opacity="0.18"/>
      <stop offset="1" stop-color="#00E5FF" stop-opacity="0"/>
    </radialGradient>
  </defs>
</svg>
