<svg xmlns="http://www.w3.org/2000/svg" width="1280" height="720" viewBox="0 0 1280 720" role="img" aria-labelledby="title desc">
  <title id="title">Asistente de Negocio MEDIOEVO</title>
  <desc id="desc">Cover comercial para Gumroad con estetica MEDIOEVO GEODIA.</desc>
  <defs>
    <linearGradient id="bg" x1="0" y1="0" x2="1" y2="1">
      <stop offset="0" stop-color="#090b12"/>
      <stop offset="0.48" stop-color="#15111a"/>
      <stop offset="1" stop-color="#271a11"/>
    </linearGradient>
    <linearGradient id="copper" x1="0" y1="0" x2="1" y2="0">
      <stop offset="0" stop-color="#8d5525"/>
      <stop offset="0.5" stop-color="#d98f2b"/>
      <stop offset="1" stop-color="#2eccc7"/>
    </linearGradient>
    <filter id="soft" x="-20%" y="-20%" width="140%" height="140%">
      <feGaussianBlur stdDeviation="18"/>
    </filter>
  </defs>
  <rect width="1280" height="720" fill="url(#bg)"/>
  <path d="M0 616 C150 566 270 650 426 604 C606 552 728 614 896 570 C1052 530 1160 536 1280 486 L1280 720 L0 720 Z" fill="#0b1118"/>
  <g opacity="0.28" filter="url(#soft)">
    <rect x="790" y="110" width="360" height="360" rx="12" fill="#d98f2b"/>
    <rect x="930" y="190" width="260" height="260" rx="12" fill="#2eccc7"/>
  </g>
  <g transform="translate(96 92)">
    <rect x="0" y="0" width="1088" height="536" rx="18" fill="rgba(8,10,18,0.74)" stroke="rgba(217,143,43,0.45)" stroke-width="2"/>
    <rect x="34" y="34" width="92" height="92" rx="12" fill="none" stroke="url(#copper)" stroke-width="5"/>
    <path d="M80 48 L112 80 L80 112 L48 80 Z" fill="none" stroke="#2eccc7" stroke-width="5"/>
    <text x="152" y="68" fill="#d98f2b" font-family="Arial, sans-serif" font-size="24" font-weight="700" letter-spacing="4">MEDIOEVO</text>
    <text x="152" y="118" fill="#f2ead9" font-family="Georgia, serif" font-size="48" font-weight="700">Asistente de Negocio</text>
    <text x="54" y="226" fill="#f2ead9" font-family="Georgia, serif" font-size="68" font-weight="700">Responde clientes en minutos</text>
    <text x="58" y="284" fill="#cfc6b5" font-family="Arial, sans-serif" font-size="30">WhatsApp y correo con borradores aprobados</text>
    <g transform="translate(58 352)" font-family="Arial, sans-serif" font-size="24" fill="#f2ead9">
      <rect x="0" y="0" width="260" height="72" rx="10" fill="rgba(217,143,43,0.16)" stroke="rgba(217,143,43,0.55)"/>
      <text x="22" y="45">Voz + avisos</text>
      <rect x="292" y="0" width="300" height="72" rx="10" fill="rgba(46,204,199,0.12)" stroke="rgba(46,204,199,0.45)"/>
      <text x="314" y="45">Aprobacion humana</text>
      <rect x="624" y="0" width="282" height="72" rx="10" fill="rgba(242,234,217,0.08)" stroke="rgba(242,234,217,0.24)"/>
      <text x="646" y="45">Windows v1.0.0</text>
    </g>
    <text x="58" y="490" fill="#8f887b" font-family="Arial, sans-serif" font-size="22">Tu revisas. Tu apruebas. MEDIOEVO prepara.</text>
  </g>
</svg>

