<svg xmlns="http://www.w3.org/2000/svg" viewBox="0 0 80 80" fill="none">
  <!-- Pergamino enrollado -->
  <rect x="15" y="20" width="50" height="45" rx="3" stroke="#D4A054" stroke-width="1.5" fill="none"/>
  <path d="M15 25 Q10 32 15 40" stroke="#D4A054" stroke-width="1.2" fill="none"/>
  <path d="M65 25 Q70 32 65 40" stroke="#D4A054" stroke-width="1.2" fill="none"/>
  <!-- Lineas de texto -->
  <line x1="22" y1="33" x2="58" y2="33" stroke="#D4A054" stroke-width="0.8" opacity="0.5"/>
  <line x1="22" y1="39" x2="52" y2="39" stroke="#D4A054" stroke-width="0.8" opacity="0.5"/>
  <line x1="22" y1="45" x2="55" y2="45" stroke="#D4A054" stroke-width="0.8" opacity="0.5"/>
  <line x1="22" y1="51" x2="48" y2="51" stroke="#D4A054" stroke-width="0.8" opacity="0.5"/>
  <!-- Pluma de ave - quill -->
  <path d="M52 18 Q62 8 70 10 Q65 20 52 28 Q48 30 45 35 L42 42 Q43 36 45 32 Q44 28 52 18 Z" stroke="#D4A054" stroke-width="1.2" fill="none"/>
  <path d="M52 18 Q56 22 52 28" stroke="#D4A054" stroke-width="0.8" opacity="0.5"/>
  <!-- Punto de tinta -->
  <circle cx="42" cy="43" r="1.5" fill="#D4A054" opacity="0.8"/>
</svg>
